<mxfile host="app.diagrams.net" modified="2021-08-13T12:50:13.184Z" agent="5.0 (Windows NT 10.0; Win64; x64) AppleWebKit/537.36 (KHTML, like Gecko) Chrome/92.0.4515.131 Safari/537.36" etag="Cw2_Hi85P3BTKTWFMZYJ" version="14.9.6" type="github">
  <diagram id="6I0OCvxSQrVGMHxT2VVA" name="Page-1">
    <mxGraphModel dx="868" dy="1550" grid="1" gridSize="10" guides="1" tooltips="1" connect="1" arrows="1" fold="1" page="1" pageScale="1" pageWidth="850" pageHeight="1100" math="0" shadow="0">
      <root>
        <mxCell id="0" />
        <mxCell id="1" parent="0" />
        <mxCell id="SPM2e_mYvR4uVvBTQs8X-3" value="File Upload" style="rounded=0;whiteSpace=wrap;html=1;fontSize=14;strokeWidth=1;fillColor=#f5f5f5;" vertex="1" parent="1">
          <mxGeometry x="680" y="-410" width="310" height="60" as="geometry" />
        </mxCell>
        <mxCell id="SPM2e_mYvR4uVvBTQs8X-4" value="&lt;b&gt;angular&lt;/b&gt;" style="rounded=1;whiteSpace=wrap;html=1;fontSize=14;strokeWidth=1;fillColor=#8CD9F5;" vertex="1" parent="1">
          <mxGeometry x="450" y="-270" width="120" height="60" as="geometry" />
        </mxCell>
        <mxCell id="SPM2e_mYvR4uVvBTQs8X-13" value="" style="edgeStyle=orthogonalEdgeStyle;rounded=0;orthogonalLoop=1;jettySize=auto;html=1;fontSize=14;" edge="1" parent="1" source="SPM2e_mYvR4uVvBTQs8X-8" target="SPM2e_mYvR4uVvBTQs8X-12">
          <mxGeometry relative="1" as="geometry" />
        </mxCell>
        <mxCell id="SPM2e_mYvR4uVvBTQs8X-8" value="Bull Microservice" style="rounded=1;whiteSpace=wrap;html=1;fontSize=14;strokeWidth=1;fillColor=#ffff88;strokeColor=#36393d;" vertex="1" parent="1">
          <mxGeometry x="710" y="-270" width="120" height="60" as="geometry" />
        </mxCell>
        <mxCell id="SPM2e_mYvR4uVvBTQs8X-9" value="" style="endArrow=classic;html=1;fontSize=14;" edge="1" parent="1">
          <mxGeometry relative="1" as="geometry">
            <mxPoint x="880" y="-240.5" as="sourcePoint" />
            <mxPoint x="940" y="-240.5" as="targetPoint" />
          </mxGeometry>
        </mxCell>
        <mxCell id="SPM2e_mYvR4uVvBTQs8X-10" value="File data" style="edgeLabel;resizable=0;html=1;align=center;verticalAlign=middle;fontSize=13;" connectable="0" vertex="1" parent="SPM2e_mYvR4uVvBTQs8X-9">
          <mxGeometry relative="1" as="geometry">
            <mxPoint x="-20" y="1" as="offset" />
          </mxGeometry>
        </mxCell>
        <mxCell id="SPM2e_mYvR4uVvBTQs8X-12" value="Bull js Module" style="ellipse;whiteSpace=wrap;html=1;fontSize=14;strokeWidth=1;fillColor=#8CD9F5;" vertex="1" parent="1">
          <mxGeometry x="940" y="-280" width="120" height="80" as="geometry" />
        </mxCell>
        <mxCell id="SPM2e_mYvR4uVvBTQs8X-20" value="" style="endArrow=classic;html=1;fontSize=13;exitX=1;exitY=0.492;exitDx=0;exitDy=0;exitPerimeter=0;entryX=0;entryY=0.5;entryDx=0;entryDy=0;" edge="1" parent="1" source="SPM2e_mYvR4uVvBTQs8X-4" target="SPM2e_mYvR4uVvBTQs8X-8">
          <mxGeometry relative="1" as="geometry">
            <mxPoint x="580" y="-240.5" as="sourcePoint" />
            <mxPoint x="680" y="-240.5" as="targetPoint" />
          </mxGeometry>
        </mxCell>
        <mxCell id="SPM2e_mYvR4uVvBTQs8X-21" value="File" style="edgeLabel;resizable=0;html=1;align=center;verticalAlign=middle;fontSize=14;" connectable="0" vertex="1" parent="SPM2e_mYvR4uVvBTQs8X-20">
          <mxGeometry relative="1" as="geometry" />
        </mxCell>
        <mxCell id="SPM2e_mYvR4uVvBTQs8X-22" value="Redis" style="shape=datastore;whiteSpace=wrap;html=1;fontSize=14;strokeWidth=1;fillColor=#8CD9F5;" vertex="1" parent="1">
          <mxGeometry x="1190" y="-170" width="80" height="60" as="geometry" />
        </mxCell>
        <mxCell id="SPM2e_mYvR4uVvBTQs8X-25" value="Bull js Module" style="ellipse;whiteSpace=wrap;html=1;fontSize=14;strokeWidth=1;fillColor=#8CD9F5;" vertex="1" parent="1">
          <mxGeometry x="950" y="-120" width="120" height="80" as="geometry" />
        </mxCell>
        <mxCell id="SPM2e_mYvR4uVvBTQs8X-33" value="" style="endArrow=classic;html=1;fontSize=14;exitX=1;exitY=0.588;exitDx=0;exitDy=0;exitPerimeter=0;entryX=0;entryY=0.3;entryDx=0;entryDy=0;" edge="1" parent="1" source="SPM2e_mYvR4uVvBTQs8X-12" target="SPM2e_mYvR4uVvBTQs8X-22">
          <mxGeometry width="50" height="50" relative="1" as="geometry">
            <mxPoint x="1120" y="-230" as="sourcePoint" />
            <mxPoint x="1070" y="-180" as="targetPoint" />
          </mxGeometry>
        </mxCell>
        <mxCell id="SPM2e_mYvR4uVvBTQs8X-34" value="Bull queue with data" style="text;html=1;align=center;verticalAlign=middle;resizable=0;points=[];autosize=1;strokeColor=#36393d;fontSize=14;fillColor=#eeeeee;" vertex="1" parent="1">
          <mxGeometry x="1110" y="-240" width="140" height="20" as="geometry" />
        </mxCell>
        <mxCell id="SPM2e_mYvR4uVvBTQs8X-35" value="" style="endArrow=classic;html=1;fontSize=14;entryX=1;entryY=0.6;entryDx=0;entryDy=0;entryPerimeter=0;" edge="1" parent="1" source="SPM2e_mYvR4uVvBTQs8X-22" target="SPM2e_mYvR4uVvBTQs8X-25">
          <mxGeometry width="50" height="50" relative="1" as="geometry">
            <mxPoint x="1170" y="-110" as="sourcePoint" />
            <mxPoint x="1120" y="-60" as="targetPoint" />
          </mxGeometry>
        </mxCell>
        <mxCell id="SPM2e_mYvR4uVvBTQs8X-36" value="Bull Microservice" style="rounded=1;whiteSpace=wrap;html=1;fontSize=14;strokeWidth=1;fillColor=#ffff88;strokeColor=#36393d;" vertex="1" parent="1">
          <mxGeometry x="710" y="-120" width="120" height="60" as="geometry" />
        </mxCell>
        <mxCell id="SPM2e_mYvR4uVvBTQs8X-37" value="Bull data" style="endArrow=classic;html=1;fontSize=14;exitX=0;exitY=0.5;exitDx=0;exitDy=0;" edge="1" parent="1" source="SPM2e_mYvR4uVvBTQs8X-25">
          <mxGeometry relative="1" as="geometry">
            <mxPoint x="930" y="-80.5" as="sourcePoint" />
            <mxPoint x="830" y="-80.5" as="targetPoint" />
          </mxGeometry>
        </mxCell>
        <mxCell id="SPM2e_mYvR4uVvBTQs8X-39" style="edgeStyle=none;rounded=0;orthogonalLoop=1;jettySize=auto;html=1;entryX=0;entryY=0.5;entryDx=0;entryDy=0;fontSize=14;" edge="1" parent="1" source="SPM2e_mYvR4uVvBTQs8X-25" target="SPM2e_mYvR4uVvBTQs8X-25">
          <mxGeometry relative="1" as="geometry" />
        </mxCell>
        <mxCell id="SPM2e_mYvR4uVvBTQs8X-40" value="Reciving Queue data" style="text;html=1;align=center;verticalAlign=middle;resizable=0;points=[];autosize=1;strokeColor=#36393d;fontSize=14;fillColor=#eeeeee;" vertex="1" parent="1">
          <mxGeometry x="1125" y="-80" width="150" height="20" as="geometry" />
        </mxCell>
        <mxCell id="SPM2e_mYvR4uVvBTQs8X-41" value="Data Base" style="shape=datastore;whiteSpace=wrap;html=1;fontSize=14;strokeWidth=1;fillColor=#8CD9F5;" vertex="1" parent="1">
          <mxGeometry x="480" y="-130" width="70" height="70" as="geometry" />
        </mxCell>
        <mxCell id="SPM2e_mYvR4uVvBTQs8X-42" value="" style="endArrow=classic;html=1;fontSize=14;exitX=0;exitY=0.617;exitDx=0;exitDy=0;exitPerimeter=0;entryX=1;entryY=0.7;entryDx=0;entryDy=0;" edge="1" parent="1" source="SPM2e_mYvR4uVvBTQs8X-36" target="SPM2e_mYvR4uVvBTQs8X-41">
          <mxGeometry relative="1" as="geometry">
            <mxPoint x="680" y="-81" as="sourcePoint" />
            <mxPoint x="580" y="-81" as="targetPoint" />
          </mxGeometry>
        </mxCell>
        <mxCell id="SPM2e_mYvR4uVvBTQs8X-43" value="Data" style="edgeLabel;resizable=0;html=1;align=center;verticalAlign=middle;fontSize=14;" connectable="0" vertex="1" parent="SPM2e_mYvR4uVvBTQs8X-42">
          <mxGeometry relative="1" as="geometry" />
        </mxCell>
      </root>
    </mxGraphModel>
  </diagram>
</mxfile>
